<svg width="74" height="34" viewBox="0 0 74 34" fill="none" xmlns="http://www.w3.org/2000/svg">
<g clip-path="url(#clip0)">
<path fill-rule="evenodd" clip-rule="evenodd" d="M64.1714 7.99187C68.1926 12.0131 68.4942 18.3605 65.1039 22.8212L73.8274 31.5447L71.7602 33.6118L63.057 24.9086C58.5884 28.446 52.1232 28.1914 48.0475 24.1157C43.6534 19.7216 43.7007 12.55 48.1532 8.09754C52.6057 3.64507 59.7772 3.59776 64.1714 7.99187ZM63.3445 8.81873C67.2879 12.7622 67.2455 19.1982 63.2497 23.194C59.2539 27.1898 52.8178 27.2323 48.8744 23.2888C44.931 19.3454 44.9734 12.9094 48.9692 8.91356C52.965 4.91776 59.4011 4.8753 63.3445 8.81873Z" fill="#2B4074"/>
<path fill-rule="evenodd" clip-rule="evenodd" d="M29.7115 16.6598C29.7115 24.6267 23.1673 31.0852 15.0945 31.0852C7.02179 31.0852 0.477539 24.6267 0.477539 16.6598C0.477539 8.69285 7.02179 2.23438 15.0945 2.23438C23.1673 2.23438 29.7115 8.69285 29.7115 16.6598ZM28.5422 16.6598C28.5422 23.9894 22.5215 29.9312 15.0945 29.9312C7.66761 29.9312 1.6469 23.9894 1.6469 16.6598C1.6469 9.3302 7.66761 3.38841 15.0945 3.38841C22.5215 3.38841 28.5422 9.3302 28.5422 16.6598ZM12.7558 13.7747V14.3517H13.9252V23.584H12.7558V24.161H13.9252H16.2639H17.4333V23.584H16.2639V13.7747H13.9252H12.7558ZM16.8486 10.8896C16.8486 11.8457 16.0633 12.6207 15.0945 12.6207C14.1258 12.6207 13.3405 11.8457 13.3405 10.8896C13.3405 9.93359 14.1258 9.15857 15.0945 9.15857C16.0633 9.15857 16.8486 9.93359 16.8486 10.8896Z" fill="#2B4074"/>
</g>
<defs>
<clipPath id="clip0">
<rect width="73.1343" height="33.4728" fill="white" transform="translate(0.477539 0.142334)"/>
</clipPath>
</defs>
</svg>
